<svg width="54" height="47" viewBox="0 0 54 47" fill="none" xmlns="http://www.w3.org/2000/svg">
<path d="M14.1543 6.11158C13.6688 2.65635 10.7019 0 7.11398 0C3.1845 0 0.000263754 3.18423 0.000263754 7.11371C0.000263754 10.4193 2.25576 13.1971 5.31296 13.996L14.1543 6.11158Z" fill="#CD995B"/>
<path d="M11.5059 6.52069C11.2049 4.37924 9.36616 2.73291 7.14248 2.73291C4.7071 2.73291 2.73361 4.7064 2.73361 7.14178C2.73361 9.1905 4.1315 10.9121 6.02626 11.4072L11.5059 6.52069Z" fill="black"/>
<path d="M39.7197 6.11158C40.2053 2.65635 43.1721 0 46.76 0C50.6895 0 53.8738 3.18423 53.8738 7.11371C53.8738 10.4193 51.6183 13.1971 48.5611 13.996L39.7197 6.11158Z" fill="#CD995B"/>
<path d="M42.5742 6.23285C42.8751 4.0914 44.7139 2.44507 46.9376 2.44507C49.373 2.44507 51.3465 4.41856 51.3465 6.85394C51.3465 8.90266 49.9486 10.6242 48.0538 11.1193L42.5742 6.23285Z" fill="black"/>
<path d="M26.8797 46.7445C32.7485 46.7445 44.1869 46.561 50.0698 38.6371C52.3225 35.6025 53.7594 31.4358 53.7594 25.711C53.7594 5.02477 38.7246 0 26.8797 0C15.0348 0 0 4.7453 0 25.711C0 31.3032 1.37193 35.4077 3.53145 38.4225C9.36639 46.5581 20.9572 46.7445 26.8797 46.7445Z" fill="#CD995B"/>
<path d="M27.0473 29.2332C29.9221 29.0378 32.9785 26.1805 32.9785 23.6789C32.9785 21.1772 30.463 20.0503 26.7438 20.0503H26.667C22.9442 20.0503 20.4287 21.0866 20.4287 23.6789C20.4287 26.2711 23.4814 29.0412 26.3599 29.2332H27.0473Z" fill="black"/>
<path d="M15.2169 20.643C16.6481 20.643 17.8083 19.3304 17.8083 17.7112C17.8083 16.0919 16.6481 14.7793 15.2169 14.7793C13.7857 14.7793 12.6255 16.0919 12.6255 17.7112C12.6255 19.3304 13.7857 20.643 15.2169 20.643Z" fill="black"/>
<path d="M38.0992 20.643C39.5304 20.643 40.6907 19.3304 40.6907 17.7112C40.6907 16.0919 39.5304 14.7793 38.0992 14.7793C36.668 14.7793 35.5078 16.0919 35.5078 17.7112C35.5078 19.3304 36.668 20.643 38.0992 20.643Z" fill="black"/>
<path d="M23.3008 36.3019C22.8633 36.3019 22.4144 36.2595 21.9712 36.172C20.7884 35.9377 19.8117 35.4296 19.2217 34.738C19.1201 34.6194 19.1342 34.4416 19.2528 34.34C19.3713 34.2383 19.5492 34.2525 19.6508 34.371C20.1505 34.9554 21.0368 35.4098 22.0813 35.6159C23.1089 35.8192 24.1618 35.7655 24.9691 35.4663C25.6184 35.2264 26.3947 34.7211 26.3947 33.6822V28.5135C26.3947 28.3582 26.5217 28.2312 26.677 28.2312C26.8323 28.2312 26.9593 28.3582 26.9593 28.5135V33.6822C26.9593 34.7493 26.3213 35.5707 25.1668 35.997C24.6163 36.2003 23.9727 36.3019 23.3008 36.3019Z" fill="black"/>
<path d="M30.0619 36.3019C29.3901 36.3019 28.7464 36.2003 28.1988 35.997C27.0414 35.5707 26.4062 34.7493 26.4062 33.6822V28.5135C26.4062 28.3582 26.5333 28.2312 26.6885 28.2312C26.8438 28.2312 26.9708 28.3582 26.9708 28.5135V33.6822C26.9708 34.7239 27.7443 35.2264 28.3964 35.4663C29.2037 35.7655 30.2567 35.8192 31.2842 35.6159C32.3287 35.4098 33.2151 34.9554 33.7147 34.371C33.8164 34.2525 33.9942 34.2383 34.1128 34.34C34.2313 34.4416 34.2454 34.6194 34.1438 34.738C33.5538 35.4268 32.5771 35.9377 31.3943 36.172C30.9455 36.2595 30.4966 36.3019 30.0619 36.3019Z" fill="black"/>
</svg>
